<mxfile host="app.diagrams.net" agent="Mozilla/5.0 (Windows NT 10.0; Win64; x64) AppleWebKit/537.36 (KHTML, like Gecko) Chrome/131.0.0.0 Safari/537.36" version="24.9.2">
  <diagram name="第 1 页" id="CC5GW9aRZrzXliKo2RYj">
    <mxGraphModel dx="1050" dy="569" grid="1" gridSize="10" guides="1" tooltips="1" connect="1" arrows="1" fold="1" page="1" pageScale="1" pageWidth="827" pageHeight="1169" math="0" shadow="0">
      <root>
        <mxCell id="0" />
        <mxCell id="1" parent="0" />
        <mxCell id="7DnMASjZtS6HJgwWUiqK-1" value="用户反馈管理功能" style="swimlane;whiteSpace=wrap;html=1;" vertex="1" parent="1">
          <mxGeometry x="324" y="110" width="280" height="410" as="geometry" />
        </mxCell>
        <mxCell id="7DnMASjZtS6HJgwWUiqK-2" value="用户社区反馈、建议及举报功能" style="ellipse;whiteSpace=wrap;html=1;fillColor=#dae8fc;strokeColor=#6c8ebf;" vertex="1" parent="7DnMASjZtS6HJgwWUiqK-1">
          <mxGeometry x="16" y="65" width="174" height="40" as="geometry" />
        </mxCell>
        <mxCell id="7DnMASjZtS6HJgwWUiqK-35" value="商城反馈、建议及举报功能" style="ellipse;whiteSpace=wrap;html=1;fillColor=#dae8fc;strokeColor=#6c8ebf;" vertex="1" parent="7DnMASjZtS6HJgwWUiqK-1">
          <mxGeometry x="16" y="130" width="174" height="40" as="geometry" />
        </mxCell>
        <mxCell id="7DnMASjZtS6HJgwWUiqK-36" value="词条反馈、建议及举报功能" style="ellipse;whiteSpace=wrap;html=1;fillColor=#dae8fc;strokeColor=#6c8ebf;" vertex="1" parent="7DnMASjZtS6HJgwWUiqK-1">
          <mxGeometry x="16" y="200" width="174" height="40" as="geometry" />
        </mxCell>
        <mxCell id="7DnMASjZtS6HJgwWUiqK-26" value="普通用户" style="shape=umlActor;verticalLabelPosition=bottom;verticalAlign=top;html=1;fillColor=#f8cecc;strokeColor=#b85450;" vertex="1" parent="1">
          <mxGeometry x="190" y="270" width="30" height="60" as="geometry" />
        </mxCell>
        <mxCell id="7DnMASjZtS6HJgwWUiqK-27" value="商家" style="shape=umlActor;verticalLabelPosition=bottom;verticalAlign=top;html=1;fillColor=#f8cecc;strokeColor=#b85450;" vertex="1" parent="1">
          <mxGeometry x="190" y="365" width="30" height="60" as="geometry" />
        </mxCell>
        <mxCell id="7DnMASjZtS6HJgwWUiqK-29" value="" style="endArrow=block;endFill=0;html=1;rounded=0;fillColor=#d5e8d4;strokeColor=#82b366;exitX=0.5;exitY=0;exitDx=0;exitDy=0;exitPerimeter=0;entryX=0.5;entryY=0.5;entryDx=0;entryDy=0;entryPerimeter=0;" edge="1" parent="1" source="7DnMASjZtS6HJgwWUiqK-27" target="7DnMASjZtS6HJgwWUiqK-26">
          <mxGeometry width="160" relative="1" as="geometry">
            <mxPoint x="245" y="475" as="sourcePoint" />
            <mxPoint x="230" y="395" as="targetPoint" />
          </mxGeometry>
        </mxCell>
        <mxCell id="7DnMASjZtS6HJgwWUiqK-30" value="" style="endArrow=none;html=1;rounded=0;fillColor=#d5e8d4;strokeColor=#82b366;entryX=1;entryY=0.3333333333333333;entryDx=0;entryDy=0;entryPerimeter=0;exitX=0;exitY=0.5;exitDx=0;exitDy=0;" edge="1" parent="1" source="7DnMASjZtS6HJgwWUiqK-35" target="7DnMASjZtS6HJgwWUiqK-26">
          <mxGeometry width="50" height="50" relative="1" as="geometry">
            <mxPoint x="340" y="320" as="sourcePoint" />
            <mxPoint x="264" y="280" as="targetPoint" />
          </mxGeometry>
        </mxCell>
        <mxCell id="7DnMASjZtS6HJgwWUiqK-32" value="" style="endArrow=none;html=1;rounded=0;fillColor=#d5e8d4;strokeColor=#82b366;entryX=0;entryY=0.5;entryDx=0;entryDy=0;exitX=1;exitY=0.3333333333333333;exitDx=0;exitDy=0;exitPerimeter=0;" edge="1" parent="1" source="7DnMASjZtS6HJgwWUiqK-26" target="7DnMASjZtS6HJgwWUiqK-2">
          <mxGeometry width="50" height="50" relative="1" as="geometry">
            <mxPoint x="350" y="310" as="sourcePoint" />
            <mxPoint x="264" y="300" as="targetPoint" />
          </mxGeometry>
        </mxCell>
        <mxCell id="7DnMASjZtS6HJgwWUiqK-34" value="" style="endArrow=none;html=1;rounded=0;fillColor=#d5e8d4;strokeColor=#82b366;exitX=0;exitY=0.5;exitDx=0;exitDy=0;entryX=1;entryY=0.3333333333333333;entryDx=0;entryDy=0;entryPerimeter=0;" edge="1" parent="1" source="7DnMASjZtS6HJgwWUiqK-36" target="7DnMASjZtS6HJgwWUiqK-26">
          <mxGeometry width="50" height="50" relative="1" as="geometry">
            <mxPoint x="340" y="430" as="sourcePoint" />
            <mxPoint x="264" y="205" as="targetPoint" />
          </mxGeometry>
        </mxCell>
      </root>
    </mxGraphModel>
  </diagram>
</mxfile>
